# xmcd
#
# Track frame offsets:
#	150
#	14355
#	30275
#	47237
#	60875
#	78362
#	95225
#	113845
#	133195
#	153475
#	167925
#	187850
#	205580
#	227387
#	243587
#	261357
#	280487
#
# Disc length: 4062 seconds
# Revision: 2
# Processed by: cddbd v1.5.2PL0 Copyright (c) Steve Scherf et al.
# Submitted via: dBpowerAMP V12.0
#
DISCID=e10fdc11
DTITLE=The Judds - The Judds Collection: 1983-1990
DYEAR=1995
DGENRE=Country
TTITLE0=Give A Little Love
TTITLE1=Maybe Your Baby's Got The Blues
TTITLE2=I'm Falling In Love Tonight
TTITLE3=Let Me Tell You About Love
TTITLE4=The Sweetest Gift
TTITLE5=Turn It Loose
TTITLE6=One Man Woman
TTITLE7=Water Of Love
TTITLE8=River Of Time
TTITLE9=Cadillac Red
TTITLE10=Young Love (Strong Love)
TTITLE11=One Hundred And Two
TTITLE12=Born To Be Blue
TTITLE13=Guardian Angels
TTITLE14=Calling In The Wind
TTITLE15=Rompin' Stompin' Blues
TTITLE16=Love Can Build A Bridge
EXTD=
EXTT0=
EXTT1=
EXTT2=
EXTT3=
EXTT4=
EXTT5=
EXTT6=
EXTT7=
EXTT8=
EXTT9=
EXTT10=
EXTT11=
EXTT12=
EXTT13=
EXTT14=
EXTT15=
EXTT16=
PLAYORDER=
